<svg width="760" height="369" viewBox="0 0 760 369" fill="none" xmlns="http://www.w3.org/2000/svg">
<g filter="url(#filter0_d)">
<rect x="110" y="88" width="541" height="192" rx="26" fill="url(#paint0_linear)"/>
</g>
<g filter="url(#filter1_d)">
<path d="M320.688 149.719C315.542 148.24 311.792 146.427 309.438 144.281C307.104 142.115 305.938 139.448 305.938 136.281C305.938 132.698 307.365 129.74 310.219 127.406C313.094 125.052 316.823 123.875 321.406 123.875C324.531 123.875 327.312 124.479 329.75 125.688C332.208 126.896 334.104 128.562 335.438 130.688C336.792 132.812 337.469 135.135 337.469 137.656H331.438C331.438 134.906 330.562 132.75 328.812 131.188C327.062 129.604 324.594 128.812 321.406 128.812C318.448 128.812 316.135 129.469 314.469 130.781C312.823 132.073 312 133.875 312 136.188C312 138.042 312.781 139.615 314.344 140.906C315.927 142.177 318.604 143.344 322.375 144.406C326.167 145.469 329.125 146.646 331.25 147.938C333.396 149.208 334.979 150.698 336 152.406C337.042 154.115 337.562 156.125 337.562 158.438C337.562 162.125 336.125 165.083 333.25 167.312C330.375 169.521 326.531 170.625 321.719 170.625C318.594 170.625 315.677 170.031 312.969 168.844C310.26 167.635 308.167 165.99 306.688 163.906C305.229 161.823 304.5 159.458 304.5 156.812H310.531C310.531 159.562 311.542 161.74 313.562 163.344C315.604 164.927 318.323 165.719 321.719 165.719C324.885 165.719 327.312 165.073 329 163.781C330.688 162.49 331.531 160.729 331.531 158.5C331.531 156.271 330.75 154.552 329.188 153.344C327.625 152.115 324.792 150.906 320.688 149.719ZM358.406 170.625C353.823 170.625 350.094 169.125 347.219 166.125C344.344 163.104 342.906 159.073 342.906 154.031V152.969C342.906 149.615 343.542 146.625 344.812 144C346.104 141.354 347.896 139.292 350.188 137.812C352.5 136.312 355 135.562 357.688 135.562C362.083 135.562 365.5 137.01 367.938 139.906C370.375 142.802 371.594 146.948 371.594 152.344V154.75H348.688C348.771 158.083 349.74 160.781 351.594 162.844C353.469 164.885 355.844 165.906 358.719 165.906C360.76 165.906 362.49 165.49 363.906 164.656C365.323 163.823 366.562 162.719 367.625 161.344L371.156 164.094C368.323 168.448 364.073 170.625 358.406 170.625ZM357.688 140.312C355.354 140.312 353.396 141.167 351.812 142.875C350.229 144.562 349.25 146.938 348.875 150H365.812V149.562C365.646 146.625 364.854 144.354 363.438 142.75C362.021 141.125 360.104 140.312 357.688 140.312ZM383.781 136.188L383.969 140.438C386.552 137.188 389.927 135.562 394.094 135.562C401.24 135.562 404.844 139.594 404.906 147.656V170H399.125V147.625C399.104 145.188 398.542 143.385 397.438 142.219C396.354 141.052 394.656 140.469 392.344 140.469C390.469 140.469 388.823 140.969 387.406 141.969C385.99 142.969 384.885 144.281 384.094 145.906V170H378.312V136.188H383.781ZM412.219 152.812C412.219 147.625 413.448 143.458 415.906 140.312C418.365 137.146 421.583 135.562 425.562 135.562C429.521 135.562 432.656 136.917 434.969 139.625V122H440.75V170H435.438L435.156 166.375C432.844 169.208 429.625 170.625 425.5 170.625C421.583 170.625 418.385 169.021 415.906 165.812C413.448 162.604 412.219 158.417 412.219 153.25V152.812ZM418 153.469C418 157.302 418.792 160.302 420.375 162.469C421.958 164.635 424.146 165.719 426.938 165.719C430.604 165.719 433.281 164.073 434.969 160.781V145.25C433.24 142.062 430.583 140.469 427 140.469C424.167 140.469 421.958 141.562 420.375 143.75C418.792 145.938 418 149.177 418 153.469ZM473.469 128V136.188H479.781V140.656H473.469V161.625C473.469 162.979 473.75 164 474.312 164.688C474.875 165.354 475.833 165.688 477.188 165.688C477.854 165.688 478.771 165.562 479.938 165.312V170C478.417 170.417 476.938 170.625 475.5 170.625C472.917 170.625 470.969 169.844 469.656 168.281C468.344 166.719 467.688 164.5 467.688 161.625V140.656H461.531V136.188H467.688V128H473.469ZM484.406 152.781C484.406 149.469 485.052 146.49 486.344 143.844C487.656 141.198 489.469 139.156 491.781 137.719C494.115 136.281 496.771 135.562 499.75 135.562C504.354 135.562 508.073 137.156 510.906 140.344C513.76 143.531 515.188 147.771 515.188 153.062V153.469C515.188 156.76 514.552 159.719 513.281 162.344C512.031 164.948 510.229 166.979 507.875 168.438C505.542 169.896 502.854 170.625 499.812 170.625C495.229 170.625 491.51 169.031 488.656 165.844C485.823 162.656 484.406 158.438 484.406 153.188V152.781ZM490.219 153.469C490.219 157.219 491.083 160.229 492.812 162.5C494.562 164.771 496.896 165.906 499.812 165.906C502.75 165.906 505.083 164.76 506.812 162.469C508.542 160.156 509.406 156.927 509.406 152.781C509.406 149.073 508.521 146.073 506.75 143.781C505 141.469 502.667 140.312 499.75 140.312C496.896 140.312 494.594 141.448 492.844 143.719C491.094 145.99 490.219 149.24 490.219 153.469ZM317.094 230.656L317.969 236.656L319.25 231.25L328.25 199.5H333.312L342.094 231.25L343.344 236.75L344.312 230.625L351.375 199.5H357.406L346.375 245H340.906L331.531 211.844L330.812 208.375L330.094 211.844L320.375 245H314.906L303.906 199.5H309.906L317.094 230.656ZM360.656 227.781C360.656 224.469 361.302 221.49 362.594 218.844C363.906 216.198 365.719 214.156 368.031 212.719C370.365 211.281 373.021 210.562 376 210.562C380.604 210.562 384.323 212.156 387.156 215.344C390.01 218.531 391.438 222.771 391.438 228.062V228.469C391.438 231.76 390.802 234.719 389.531 237.344C388.281 239.948 386.479 241.979 384.125 243.438C381.792 244.896 379.104 245.625 376.062 245.625C371.479 245.625 367.76 244.031 364.906 240.844C362.073 237.656 360.656 233.438 360.656 228.188V227.781ZM366.469 228.469C366.469 232.219 367.333 235.229 369.062 237.5C370.812 239.771 373.146 240.906 376.062 240.906C379 240.906 381.333 239.76 383.062 237.469C384.792 235.156 385.656 231.927 385.656 227.781C385.656 224.073 384.771 221.073 383 218.781C381.25 216.469 378.917 215.312 376 215.312C373.146 215.312 370.844 216.448 369.094 218.719C367.344 220.99 366.469 224.24 366.469 228.469ZM415.031 216.375C414.156 216.229 413.208 216.156 412.188 216.156C408.396 216.156 405.823 217.771 404.469 221V245H398.688V211.188H404.312L404.406 215.094C406.302 212.073 408.99 210.562 412.469 210.562C413.594 210.562 414.448 210.708 415.031 211V216.375ZM429.812 229.344L426.188 233.125V245H420.406V197H426.188V226.031L429.281 222.312L439.812 211.188H446.844L433.688 225.312L448.375 245H441.594L429.812 229.344ZM478.812 224.906H459.719V245H453.719V199.5H481.906V204.438H459.719V220H478.812V224.906ZM494.469 245H488.688V197H494.469V245ZM502.219 227.781C502.219 224.469 502.865 221.49 504.156 218.844C505.469 216.198 507.281 214.156 509.594 212.719C511.927 211.281 514.583 210.562 517.562 210.562C522.167 210.562 525.885 212.156 528.719 215.344C531.573 218.531 533 222.771 533 228.062V228.469C533 231.76 532.365 234.719 531.094 237.344C529.844 239.948 528.042 241.979 525.688 243.438C523.354 244.896 520.667 245.625 517.625 245.625C513.042 245.625 509.323 244.031 506.469 240.844C503.635 237.656 502.219 233.438 502.219 228.188V227.781ZM508.031 228.469C508.031 232.219 508.896 235.229 510.625 237.5C512.375 239.771 514.708 240.906 517.625 240.906C520.562 240.906 522.896 239.76 524.625 237.469C526.354 235.156 527.219 231.927 527.219 227.781C527.219 224.073 526.333 221.073 524.562 218.781C522.812 216.469 520.479 215.312 517.562 215.312C514.708 215.312 512.406 216.448 510.656 218.719C508.906 220.99 508.031 224.24 508.031 228.469ZM570.188 237.031L576.688 211.188H582.469L572.625 245H567.938L559.719 219.375L551.719 245H547.031L537.219 211.188H542.969L549.625 236.5L557.5 211.188H562.156L570.188 237.031ZM599.438 236.531L607.312 211.188H613.5L599.906 250.219C597.802 255.844 594.458 258.656 589.875 258.656L588.781 258.562L586.625 258.156V253.469L588.188 253.594C590.146 253.594 591.667 253.198 592.75 252.406C593.854 251.615 594.76 250.167 595.469 248.062L596.75 244.625L584.688 211.188H591L599.438 236.531Z" fill="white"/>
</g>
<path d="M181.356 128.052C170.494 129.163 161.748 135.087 157.001 144.559C153.772 150.974 153.109 159.164 155.205 166.306C157.364 173.641 162.988 180.483 169.767 183.969C172.311 185.273 174.043 185.936 176.845 186.684L179.004 187.24L191.449 187.326L203.916 187.39L203.959 213.969L204.023 240.527L204.6 241.426C206.46 244.227 210.78 244.227 212.64 241.426L213.217 240.527L213.282 213.948L213.324 187.369H233.254H253.183L247.495 193.078C241.251 199.365 241.23 199.429 241.379 201.802C241.486 203.47 242.192 204.625 243.624 205.48C244.48 205.972 244.886 206.079 246.041 206.079C246.96 206.058 247.687 205.929 248.179 205.673C249.227 205.138 268.408 185.979 268.985 184.91C269.306 184.289 269.434 183.669 269.434 182.664C269.434 181.659 269.306 181.039 268.985 180.419C268.408 179.35 249.227 160.191 248.179 159.656C247.687 159.399 246.96 159.271 246.041 159.25C243.389 159.25 241.529 160.939 241.379 163.526C241.23 165.9 241.251 165.964 247.495 172.229L253.183 177.96H233.275H213.346L213.282 165.494L213.196 153.049L212.619 150.803C211.079 144.923 208.406 140.283 204.215 136.263C200.088 132.285 194.978 129.634 189.354 128.543C187.322 128.158 182.982 127.88 181.356 128.052ZM188.627 138.187C195.747 140.09 201.35 145.671 203.167 152.642C203.787 155.016 203.916 157.56 203.916 167.76V177.981L192.433 177.896C180.009 177.81 179.86 177.789 176.631 176.57C170.558 174.282 165.811 168.979 164.1 162.564C163.48 160.212 163.416 155.572 163.993 153.284C164.956 149.435 166.73 146.27 169.489 143.512C172.44 140.561 176.053 138.636 180.159 137.866C182.404 137.439 186.382 137.588 188.627 138.187Z" fill="white"/>
<defs>
<filter id="filter0_d" x="90" y="72" width="581" height="232" filterUnits="userSpaceOnUse" color-interpolation-filters="sRGB">
<feFlood flood-opacity="0" result="BackgroundImageFix"/>
<feColorMatrix in="SourceAlpha" type="matrix" values="0 0 0 0 0 0 0 0 0 0 0 0 0 0 0 0 0 0 127 0" result="hardAlpha"/>
<feOffset dy="4"/>
<feGaussianBlur stdDeviation="10"/>
<feComposite in2="hardAlpha" operator="out"/>
<feColorMatrix type="matrix" values="0 0 0 0 0 0 0 0 0 0 0 0 0 0 0 0 0 0 0.25 0"/>
<feBlend mode="normal" in2="BackgroundImageFix" result="effect1_dropShadow"/>
<feBlend mode="normal" in="SourceGraphic" in2="effect1_dropShadow" result="shape"/>
</filter>
<filter id="filter1_d" x="302.906" y="121" width="311.594" height="138.656" filterUnits="userSpaceOnUse" color-interpolation-filters="sRGB">
<feFlood flood-opacity="0" result="BackgroundImageFix"/>
<feColorMatrix in="SourceAlpha" type="matrix" values="0 0 0 0 0 0 0 0 0 0 0 0 0 0 0 0 0 0 127 0" result="hardAlpha"/>
<feOffset/>
<feGaussianBlur stdDeviation="0.5"/>
<feComposite in2="hardAlpha" operator="out"/>
<feColorMatrix type="matrix" values="0 0 0 0 0 0 0 0 0 0 0 0 0 0 0 0 0 0 0.25 0"/>
<feBlend mode="normal" in2="BackgroundImageFix" result="effect1_dropShadow"/>
<feBlend mode="normal" in="SourceGraphic" in2="effect1_dropShadow" result="shape"/>
</filter>
<linearGradient id="paint0_linear" x1="110" y1="88" x2="231.036" y2="429.044" gradientUnits="userSpaceOnUse">
<stop stop-color="#FCCF31"/>
<stop offset="1" stop-color="#F55555"/>
</linearGradient>
</defs>
</svg>
