<?xml version="1.0" standalone="no"?>
<!DOCTYPE svg PUBLIC "-//W3C//DTD SVG 20010904//EN"
 "http://www.w3.org/TR/2001/REC-SVG-20010904/DTD/svg10.dtd">
<svg version="1.0" xmlns="http://www.w3.org/2000/svg"
 width="1000.000000pt" height="1000.000000pt" viewBox="0 0 1000.000000 1000.000000"
 preserveAspectRatio="xMidYMid meet">
<metadata>
Created by potrace 1.14, written by Peter Selinger 2001-2017
</metadata>
<g transform="translate(0.000000,1000.000000) scale(0.100000,-0.100000)"
fill="#000000" stroke="none">
<path d="M3725 7554 c-508 -52 -917 -329 -1139 -772 -151 -300 -182 -683 -84
-1017 101 -343 364 -663 681 -826 119 -61 200 -92 331 -127 l101 -26 582 -4
583 -3 2 -1243 3 -1242 27 -42 c87 -131 289 -131 376 0 l27 42 3 1243 2 1243
932 0 932 0 -266 -267 c-292 -294 -293 -297 -286 -408 5 -78 38 -132 105 -172
40 -23 59 -28 113 -28 43 1 77 7 100 19 49 25 946 921 973 971 15 29 21 58 21
105 0 47 -6 76 -21 105 -27 50 -924 946 -973 971 -23 12 -57 18 -100 19 -124
0 -211 -79 -218 -200 -7 -111 -6 -114 286 -407 l266 -268 -931 0 -932 0 -3
583 -4 582 -27 105 c-72 275 -197 492 -393 680 -193 186 -432 310 -695 361
-95 18 -298 31 -374 23z m340 -474 c333 -89 595 -350 680 -676 29 -111 35
-230 35 -707 l0 -478 -537 4 c-581 4 -588 5 -739 62 -284 107 -506 355 -586
655 -29 110 -32 327 -5 434 45 180 128 328 257 457 138 138 307 228 499 264
105 20 291 13 396 -15z"/>
</g>
</svg>
